<svg viewBox="0 0 24 24" xmlns="http://www.w3.org/2000/svg" xmlns:xlink="http://www.w3.org/1999/xlink" width="24.000000" height="24.000000" fill="none">
	<rect id="lucide/shopping-cart" width="24.000000" height="24.000000" x="0.000000" y="0.000000" fill="rgb(255,255,255)" fill-opacity="0" />
	<path id="Vector" d="M7.9998 22C7.44752 22 6.9998 21.5523 6.9998 21C6.9998 20.4477 7.44752 20 7.9998 20C8.55209 20 8.9998 20.4477 8.9998 21C8.9998 21.5523 8.55209 22 7.9998 22ZM18.9998 22C18.4475 22 17.9998 21.5523 17.9998 21C17.9998 20.4477 18.4475 20 18.9998 20C19.5521 20 19.9998 20.4477 19.9998 21C19.9998 21.5523 19.5521 22 18.9998 22ZM2.0498 2.05L4.0498 2.05L6.7098 14.47C6.80738 14.9249 7.06047 15.3315 7.42552 15.6199C7.79056 15.9082 8.24471 16.0603 8.7098 16.05L18.4898 16.05C18.945 16.0493 19.3863 15.8933 19.7408 15.6078C20.0954 15.3224 20.3419 14.9245 20.4398 14.48L22.0898 7.05L5.1198 7.05" fill-rule="evenodd" stroke="rgb(255,255,255)" stroke-linecap="round" stroke-linejoin="round" stroke-width="1.000000" />
</svg>
